<svg width="32" height="32" viewBox="0 0 32 32" fill="none" xmlns="http://www.w3.org/2000/svg">
  <!-- Document Background -->
  <rect x="4" y="2" width="20" height="26" rx="2" fill="#ffffff" stroke="#2563eb" stroke-width="1.5"/>
  
  <!-- Document Corner Fold -->
  <path d="M20 2 L24 6 L20 6 Z" fill="#e5e7eb" stroke="#2563eb" stroke-width="1"/>
  
  <!-- Resume Lines -->
  <line x1="7" y1="8" x2="18" y2="8" stroke="#1f2937" stroke-width="1.5" stroke-linecap="round"/>
  <line x1="7" y1="11" x2="21" y2="11" stroke="#6b7280" stroke-width="1"/>
  <line x1="7" y1="13" x2="19" y2="13" stroke="#6b7280" stroke-width="1"/>
  <line x1="7" y1="15" x2="21" y2="15" stroke="#6b7280" stroke-width="1"/>
  
  <!-- Skills/Experience Section -->
  <line x1="7" y1="18" x2="15" y2="18" stroke="#1f2937" stroke-width="1.5" stroke-linecap="round"/>
  <line x1="7" y1="20" x2="20" y2="20" stroke="#6b7280" stroke-width="1"/>
  <line x1="7" y1="22" x2="18" y2="22" stroke="#6b7280" stroke-width="1"/>
  
  <!-- Forge/Craft Element - Hammer -->
  <g transform="translate(22, 18)">
    <!-- Hammer Handle -->
    <rect x="0" y="4" width="2" height="10" rx="1" fill="#8b5cf6" transform="rotate(45 1 9)"/>
    <!-- Hammer Head -->
    <rect x="-1" y="2" width="6" height="3" rx="1" fill="#6366f1" transform="rotate(45 2 3.5)"/>
    <!-- Sparks/Craft Effect -->
    <circle cx="6" cy="2" r="0.8" fill="#fbbf24"/>
    <circle cx="8" cy="4" r="0.6" fill="#f59e0b"/>
    <circle cx="7" cy="6" r="0.5" fill="#fbbf24"/>
  </g>
  
  <!-- CV Badge -->
  <circle cx="26" cy="8" r="4" fill="#10b981" stroke="#ffffff" stroke-width="1"/>
  <text x="26" y="11" text-anchor="middle" fill="#ffffff" font-family="Arial, sans-serif" font-size="6" font-weight="bold">CV</text>
</svg>
