<svg width="16" height="16" viewBox="0 0 16 16" fill="none" xmlns="http://www.w3.org/2000/svg">
  <!-- Document Background -->
  <rect x="1" y="1" width="11" height="14" rx="1" fill="#ffffff" stroke="#2563eb" stroke-width="0.8"/>
  
  <!-- Document Corner -->
  <path d="M10 1 L12 3 L10 3 Z" fill="#e5e7eb" stroke="#2563eb" stroke-width="0.5"/>
  
  <!-- Resume Lines -->
  <line x1="2.5" y1="4" x2="9.5" y2="4" stroke="#1f2937" stroke-width="0.8"/>
  <line x1="2.5" y1="5.5" x2="10.5" y2="5.5" stroke="#6b7280" stroke-width="0.5"/>
  <line x1="2.5" y1="6.5" x2="9" y2="6.5" stroke="#6b7280" stroke-width="0.5"/>
  <line x1="2.5" y1="8" x2="8" y2="8" stroke="#1f2937" stroke-width="0.8"/>
  <line x1="2.5" y1="9.5" x2="10" y2="9.5" stroke="#6b7280" stroke-width="0.5"/>
  <line x1="2.5" y1="11" x2="9" y2="11" stroke="#6b7280" stroke-width="0.5"/>
  
  <!-- Forge Element -->
  <g transform="translate(11, 9)">
    <rect x="0" y="2" width="1" height="5" rx="0.5" fill="#8b5cf6" transform="rotate(45 0.5 4.5)"/>
    <rect x="-0.5" y="1" width="3" height="1.5" rx="0.5" fill="#6366f1" transform="rotate(45 1 1.75)"/>
    <circle cx="3" cy="1" r="0.4" fill="#fbbf24"/>
    <circle cx="4" cy="2" r="0.3" fill="#f59e0b"/>
  </g>
  
  <!-- CV Badge -->
  <circle cx="13" cy="4" r="2" fill="#10b981" stroke="#ffffff" stroke-width="0.5"/>
  <text x="13" y="5.5" text-anchor="middle" fill="#ffffff" font-family="Arial, sans-serif" font-size="3" font-weight="bold">CV</text>
</svg>
